<?xml version="1.0" encoding="iso-8859-1"?>
<!-- Uploaded to: SVG Repo, www.svgrepo.com, Generator: SVG Repo Mixer Tools -->
<svg fill="#ffe66d" height="100px" width="100px" version="1.1" id="Layer_1" xmlns="http://www.w3.org/2000/svg" xmlns:xlink="http://www.w3.org/1999/xlink" 
	 viewBox="0 0 512 512" xml:space="preserve">
<g>
	<g>
		<g>
			<path d="M416,224c0-5.867-4.8-10.667-10.667-10.667H106.667C100.8,213.333,96,218.133,96,224c0,5.867,4.8,10.667,10.667,10.667
				h138.667v170.667c0,5.867,4.8,10.667,10.667,10.667c5.867,0,10.667-4.8,10.667-10.667V234.667h138.667
				C411.2,234.667,416,229.867,416,224z"/>
			<path d="M128,266.667H21.333v-160c0-5.867-4.8-10.667-10.667-10.667C4.8,96,0,100.8,0,106.667v298.667
				C0,411.2,4.8,416,10.667,416c5.867,0,10.667-4.8,10.667-10.667V352h96v53.333c0,5.867,4.8,10.667,10.667,10.667
				c5.867,0,10.667-4.8,10.667-10.667v-128C138.667,271.467,133.867,266.667,128,266.667z M117.333,330.667h-96V288h96V330.667z"/>
			<path d="M501.333,96c-5.867,0-10.667,4.8-10.667,10.667v160H384c-5.867,0-10.667,4.8-10.667,10.667v128
				c0,5.867,4.8,10.667,10.667,10.667c5.867,0,10.667-4.8,10.667-10.667V352h96v53.333c0,5.867,4.8,10.667,10.667,10.667
				C507.2,416,512,411.2,512,405.333V106.667C512,100.8,507.2,96,501.333,96z M490.667,330.667h-96V288h96V330.667z"/>
		</g>
	</g>
</g>
</svg>